<?xml version="1.0" encoding="UTF-8"?>
<svg width="85px" height="20px" viewBox="0 0 85 20" version="1.1" xmlns="http://www.w3.org/2000/svg" xmlns:xlink="http://www.w3.org/1999/xlink">
    <!-- Generator: Sketch 52.6 (67491) - http://www.bohemiancoding.com/sketch -->
    <title>Artboard</title>
    <desc>Created with Sketch.</desc>
    <g id="Artboard" stroke="none" stroke-width="1" fill="none" fill-rule="evenodd">
        <path d="M16.9597146,7.73959347 C17.0795527,10.5212203 16.4065591,12.9210857 14.9407338,14.9391896 C13.9229711,16.3694329 11.7863616,18.0431924 8.5309053,19.9604681 L8.5309053,19.9907132 C8.52233179,19.9856717 8.513766,19.9806319 8.50520794,19.9755937 C8.502143,19.9773967 8.49907708,19.9792 8.49601017,19.9810034 L8.49601017,19.9701786 C5.24055385,18.0529022 3.10394435,16.3791427 2.08618165,14.9488994 C0.610442171,12.9171459 -0.0617046048,10.4984494 0.0697413199,7.69280989 L0.0835694615,7.69280989 L0.0835694615,4.51947064 L8.3957543,6.39488462e-14 L16.9664584,4.51947064 L16.9664584,7.73959347 L16.9597146,7.73959347 Z M9.90554264,8.03183244 L12.6310378,9.63099143 L12.6306682,9.63264162 L14.0147742,10.4716769 L14.0147742,7.22041503 L14.0054287,7.22041503 L14.0086526,7.21474031 L8.52996702,4.00017243 L8.52691547,4.00554384 L8.52386392,4.00017243 L3.04512739,7.21424565 L3.04512739,10.4655076 L4.42316271,9.63264162 L4.42279761,9.63098879 L7.15769019,8.02631598 L7.15769019,14.9980966 L9.90554264,14.9980966 L9.90554264,8.03183244 Z" id="Combined-Shape" fill="#FF8243" fill-rule="nonzero" transform="translate(8.513458, 9.995357) scale(-1, 1) translate(-8.513458, -9.995357) "></path>
        <path d="M23.48,15 L23.48,6.66 L20.57,6.66 L20.57,4.35 L29,4.35 L29,6.66 L26.09,6.66 L26.09,15 L23.48,15 Z M31.17,15.225 C30.769998,15.225 30.4000017,15.1625006 30.06,15.0375 C29.7199983,14.9124994 29.4250012,14.7400011 29.175,14.52 C28.9249987,14.2999989 28.7300007,14.0375015 28.59,13.7325 C28.4499993,13.4274985 28.38,13.0950018 28.38,12.735 C28.38,12.2249975 28.5174986,11.775002 28.7925,11.385 C29.0675014,10.994998 29.4524975,10.6925011 29.9475,10.4775 C30.4425025,10.2624989 31.0199967,10.155 31.68,10.155 C32.0000016,10.155 32.2899987,10.1799998 32.55,10.23 C32.8100013,10.2800003 33.0749986,10.3599995 33.345,10.47 L33.345,10.065 C33.345,9.67499805 33.2325011,9.36250118 33.0075,9.1275 C32.7824989,8.89249883 32.4800019,8.775 32.1,8.775 C31.8199986,8.775 31.5650011,8.84249933 31.335,8.9775 C31.1049988,9.11250067 30.9450004,9.29499885 30.855,9.525 L28.665,9.15 C28.7450004,8.79999825 28.8899989,8.48000145 29.1,8.19 C29.310001,7.89999855 29.5724984,7.65000105 29.8875,7.44 C30.2025016,7.22999895 30.5499981,7.06750058 30.93,6.9525 C31.3100019,6.83749943 31.7149978,6.78 32.145,6.78 C32.6750026,6.78 33.1574978,6.86249918 33.5925,7.0275 C34.0275022,7.19250082 34.4049984,7.42749848 34.725,7.7325 C35.0450016,8.03750152 35.2899991,8.39749792 35.46,8.8125 C35.6300008,9.22750208 35.715,9.6849975 35.715,10.185 L35.715,15 L33.525,15 L33.465,14.055 C33.264999,14.4050018 32.965002,14.6874989 32.565,14.9025 C32.164998,15.1175011 31.7000026,15.225 31.17,15.225 Z M30.78,12.585 C30.78,12.8250012 30.877499,13.0224992 31.0725,13.1775 C31.267501,13.3325008 31.5249984,13.41 31.845,13.41 C32.1350014,13.41 32.3924989,13.3500006 32.6175,13.23 C32.8425011,13.1099994 33.0199993,12.9450011 33.15,12.735 C33.2800006,12.524999 33.345,12.2900013 33.345,12.03 L33.345,11.955 C33.1649991,11.8749996 32.970001,11.8125002 32.76,11.7675 C32.5499989,11.7224998 32.340001,11.7 32.13,11.7 C31.7099979,11.7 31.3800012,11.7799992 31.14,11.94 C30.8999988,12.1000008 30.78,12.3149986 30.78,12.585 Z M37.045,17.865 L37.045,7.005 L39.295,7.005 L39.37,8.145 C39.6400013,7.7249979 39.9949978,7.39250123 40.435,7.1475 C40.8750022,6.90249878 41.3599973,6.78 41.89,6.78 C42.4000025,6.78 42.8724978,6.88749893 43.3075,7.1025 C43.7425022,7.31750107 44.1224984,7.61249813 44.4475,7.9875 C44.7725016,8.36250188 45.0274991,8.80499745 45.2125,9.315 C45.3975009,9.82500255 45.49,10.3699971 45.49,10.95 C45.49,11.550003 45.3950009,12.1099974 45.205,12.63 C45.014999,13.1500026 44.7500017,13.6049981 44.41,13.995 C44.0699983,14.3850019 43.6700023,14.6874989 43.21,14.9025 C42.7499977,15.1175011 42.2550026,15.225 41.725,15.225 C41.2549976,15.225 40.8300019,15.1350009 40.45,14.955 C40.0699981,14.7749991 39.7500013,14.5150017 39.49,14.175 L39.49,17.865 L37.045,17.865 Z M41.23,13.02 C41.5700017,13.02 41.8724987,12.9325009 42.1375,12.7575 C42.4025013,12.5824991 42.6124992,12.3425015 42.7675,12.0375 C42.9225008,11.7324985 43,11.3900019 43,11.01 C43,10.6199981 42.9225008,10.2725015 42.7675,9.9675 C42.6124992,9.66249847 42.4025013,9.42250088 42.1375,9.2475 C41.8724987,9.07249913 41.5700017,8.985 41.23,8.985 C40.8899983,8.985 40.5875013,9.07249913 40.3225,9.2475 C40.0574987,9.42250088 39.8475008,9.66249847 39.6925,9.9675 C39.5374992,10.2725015 39.46,10.6199981 39.46,11.01 C39.46,11.3900019 39.5374992,11.7324985 39.6925,12.0375 C39.8475008,12.3425015 40.0574987,12.5824991 40.3225,12.7575 C40.5875013,12.9325009 40.8899983,13.02 41.23,13.02 Z M51.755,15.3 C51.1349969,15.3 50.5525027,15.2100009 50.0075,15.03 C49.4624973,14.8499991 48.9675022,14.5950017 48.5225,14.265 C48.0774978,13.9349984 47.6950016,13.5425023 47.375,13.0875 C47.0549984,12.6324977 46.8075009,12.1225028 46.6325,11.5575 C46.4574991,10.9924972 46.37,10.3900032 46.37,9.75 C46.37,9.1099968 46.4574991,8.50250287 46.6325,7.9275 C46.8075009,7.35249713 47.0574984,6.82750238 47.3825,6.3525 C47.7075016,5.87749763 48.0949977,5.46750172 48.545,5.1225 C48.9950022,4.77749828 49.4924973,4.51250093 50.0375,4.3275 C50.5825027,4.14249908 51.1599969,4.05 51.77,4.05 C52.3400028,4.05 52.8824974,4.1299992 53.3975,4.29 C53.9125026,4.4500008 54.3774979,4.67749853 54.7925,4.9725 C55.2075021,5.26750148 55.5624985,5.62249793 55.8575,6.0375 C56.1525015,6.45250207 56.3749992,6.9199974 56.525,7.44 L53.975,8.01 C53.7549989,7.5099975 53.4500019,7.12500135 53.06,6.855 C52.669998,6.58499865 52.2250025,6.45 51.725,6.45 C51.3449981,6.45 50.9925016,6.53249917 50.6675,6.6975 C50.3424984,6.86250082 50.0600012,7.09249852 49.82,7.3875 C49.5799988,7.68250147 49.3950006,8.02749802 49.265,8.4225 C49.1349993,8.81750198 49.07,9.24999765 49.07,9.72 C49.07,10.1800023 49.1349993,10.6049981 49.265,10.995 C49.3950006,11.3850019 49.5799988,11.7224986 49.82,12.0075 C50.0600012,12.2925014 50.3449983,12.5124992 50.675,12.6675 C51.0050016,12.8225008 51.364998,12.9 51.755,12.9 C52.2750026,12.9 52.732498,12.7675013 53.1275,12.5025 C53.522502,12.2374987 53.8399988,11.8500026 54.08,11.34 L56.63,11.91 C56.429999,12.6100035 56.0975023,13.2124975 55.6325,13.7175 C55.1674977,14.2225025 54.6050033,14.6124986 53.945,14.8875 C53.2849967,15.1625014 52.555004,15.3 51.755,15.3 Z M57.57,15 L57.57,3.78 L60.015,3.78 L60.015,7.875 C60.2550012,7.5349983 60.5624981,7.26750098 60.9375,7.0725 C61.3125019,6.87749903 61.7399976,6.78 62.22,6.78 C62.7900028,6.78 63.2874979,6.9199986 63.7125,7.2 C64.1375021,7.4800014 64.4674988,7.87249748 64.7025,8.3775 C64.9375012,8.88250252 65.055,9.47999655 65.055,10.17 L65.055,15 L62.61,15 L62.61,10.515 C62.61,10.0449977 62.5025011,9.67250138 62.2875,9.3975 C62.0724989,9.12249863 61.7750019,8.985 61.395,8.985 C61.1249986,8.985 60.887501,9.04999935 60.6825,9.18 C60.477499,9.31000065 60.3150006,9.48749887 60.195,9.7125 C60.0749994,9.93750113 60.015,10.1899986 60.015,10.47 L60.015,15 L57.57,15 Z M68.965,4.905 C68.965,5.15500125 68.9075006,5.379999 68.7925,5.58 C68.6774994,5.780001 68.515001,5.9399994 68.305,6.06 C68.0949989,6.1800006 67.8600013,6.24 67.6,6.24 C67.3399987,6.24 67.107501,6.1800006 66.9025,6.06 C66.697499,5.9399994 66.5375006,5.780001 66.4225,5.58 C66.3074994,5.379999 66.25,5.15500125 66.25,4.905 C66.25,4.65499875 66.3074994,4.430001 66.4225,4.23 C66.5375006,4.029999 66.697499,3.8700006 66.9025,3.75 C67.107501,3.6299994 67.3399987,3.57 67.6,3.57 C67.8600013,3.57 68.0949989,3.6299994 68.305,3.75 C68.515001,3.8700006 68.6774994,4.029999 68.7925,4.23 C68.9075006,4.430001 68.965,4.65499875 68.965,4.905 Z M66.385,15 L66.385,7.005 L68.83,7.005 L68.83,15 L66.385,15 Z M74,15.225 C73.399997,15.225 72.8500025,15.122501 72.35,14.9175 C71.8499975,14.712499 71.4150018,14.4200019 71.045,14.04 C70.6749981,13.6599981 70.390001,13.2100026 70.19,12.69 C69.989999,12.1699974 69.89,11.6000031 69.89,10.98 C69.89,10.379997 69.992499,9.82500255 70.1975,9.315 C70.402501,8.80499745 70.6874982,8.3600019 71.0525,7.98 C71.4175018,7.5999981 71.8449975,7.30500105 72.335,7.095 C72.8250024,6.88499895 73.3549971,6.78 73.925,6.78 C74.525003,6.78 75.0699975,6.88249898 75.56,7.0875 C76.0500024,7.29250102 76.4699982,7.5849981 76.82,7.965 C77.1700017,8.3450019 77.439999,8.79999735 77.63,9.33 C77.8200009,9.86000265 77.915,10.4499968 77.915,11.1 L77.915,11.64 L72.395,11.64 C72.4950005,12.1300025 72.6849986,12.5074987 72.965,12.7725 C73.2450014,13.0375013 73.5999978,13.17 74.03,13.17 C74.3500016,13.17 74.6324988,13.1050007 74.8775,12.975 C75.1225012,12.8449994 75.339999,12.6500013 75.53,12.39 L77.765,12.975 C77.574999,13.4350023 77.2925019,13.8324983 76.9175,14.1675 C76.5424981,14.5025017 76.1050025,14.7624991 75.605,14.9475 C75.1049975,15.1325009 74.5700028,15.225 74,15.225 Z M73.925,8.61 C73.524998,8.61 73.1925013,8.73749873 72.9275,8.9925 C72.6624987,9.24750127 72.4850004,9.60999765 72.395,10.08 L75.395,10.08 C75.3149996,9.60999765 75.1475013,9.24750127 74.8925,8.9925 C74.6374987,8.73749873 74.3150019,8.61 73.925,8.61 Z M79.74,15 L79.74,8.985 L78.42,8.985 L78.42,7.005 L79.74,7.005 L79.74,6.585 C79.74,6.13499775 79.8149992,5.72500185 79.965,5.355 C80.1150007,4.98499815 80.3274986,4.66500135 80.6025,4.395 C80.8775014,4.12499865 81.2049981,3.91750073 81.585,3.7725 C81.9650019,3.62749927 82.3849977,3.555 82.845,3.555 C83.1650016,3.555 83.4624986,3.58999965 83.7375,3.66 C84.0125014,3.73000035 84.2649988,3.8249994 84.495,3.945 L84.06,5.76 C83.9499994,5.6999997 83.8200007,5.6500002 83.67,5.61 C83.5199992,5.5699998 83.3800006,5.55 83.25,5.55 C82.8999982,5.55 82.6350009,5.65249898 82.455,5.8575 C82.2749991,6.06250102 82.185,6.34999815 82.185,6.72 L82.185,7.005 L84.15,7.005 L84.15,8.985 L82.185,8.985 L82.185,15 L79.74,15 Z" id="TapChief" fill="#111111"></path>
    </g>
</svg>